<svg viewBox="0 0 512 512" xmlns="http://www.w3.org/2000/svg"><path d="m512 255.957031c0-141.359375-114.613281-255.957031-256-255.957031s-256 114.597656-256 255.957031c0 141.363281 114.613281 255.957031 256 255.957031s256-114.59375 256-255.957031zm0 0" fill="#4dcabd"/><path d="m415.265625 55.570312c34.785156 43.707032 55.578125 99.039063 55.578125 159.238282 0 141.363281-114.613281 255.957031-256 255.957031-60.207031 0-115.550781-20.789063-159.265625-55.570313 46.902344 58.933594 119.242187 96.722657 200.421875 96.722657 141.386719 0 256-114.597657 256-255.957031 0-81.167969-37.792969-153.5-96.734375-200.390626zm0 0" fill="#45afa2"/><path d="m312.140625 345.285156c3.933594.546875 7.929687.921875 11.980469 1.117188.757812.039062 1.511718.070312 2.277344.09375.765624.03125 1.535156.050781 2.300781.0625.765625.007812 1.53125.019531 2.296875.019531 26.761718 0 51.738281-7.683594 72.8125-20.976563 3.46875-2.195312 5.5625-6.015624 5.5625-10.117187 0-21.628906-8.761719-41.230469-22.949219-55.394531-14.1875-14.1875-33.792969-22.96875-55.425781-22.96875-.746094 0-1.503906.011718-2.238282.03125-.660156.023437-1.324218.042968-1.976562.085937-.320312.007813-.640625.03125-.964844.0625-.589844.027344-1.179687.070313-1.769531.132813-.765625.0625-1.523437.136718-2.277344.238281-17.957031 2.09375-34.0625 10.269531-46.199219 22.40625-1.34375 1.347656-2.628906 2.734375-3.871093 4.175781zm0 0" fill="#d7fffa"/><path d="m386.417969 260.089844c-14.1875-14.1875-33.785157-22.964844-55.425781-22.964844-6.246094 0-12.3125.753906-18.136719 2.132812 14.359375 3.402344 27.199219 10.738282 37.292969 20.832032 14.1875 14.167968 22.949218 33.761718 22.949218 55.394531 0 4.101563-2.089844 7.925781-5.554687 10.113281-16.234375 10.242188-34.785157 17.136719-54.683594 19.769532 5.9375.789062 11.984375 1.210937 18.132813 1.210937 26.769531 0 51.742187-7.683594 72.820312-20.980469 3.464844-2.1875 5.554688-6.011718 5.554688-10.113281 0-21.632813-8.761719-41.226563-22.949219-55.394531zm0 0" fill="#97f6ed"/><path d="m373.097656 195.03125c0-23.25-18.851562-42.097656-42.105468-42.097656-23.25 0-42.101563 18.847656-42.101563 42.097656s18.851563 42.097656 42.101563 42.097656c23.253906 0 42.105468-18.847656 42.105468-42.097656zm0 0" fill="#218fb9"/><path d="m340.714844 154.074219c6.921875 7.5 11.152344 17.519531 11.152344 28.53125 0 23.25-18.847657 42.097656-42.101563 42.097656-3.347656 0-6.601563-.402344-9.722656-1.140625 7.695312 8.335938 18.710937 13.566406 30.949219 13.566406 23.253906 0 42.105468-18.847656 42.105468-42.097656 0-19.902344-13.820312-36.570312-32.382812-40.957031zm0 0" fill="#217fb5"/><path d="m312.160156 346.941406c0 5.480469-2.789062 10.59375-7.421875 13.515625-28.175781 17.777344-61.558593 28.046875-97.339843 28.046875s-69.167969-10.269531-97.339844-28.046875c-4.632813-2.921875-7.425782-8.035156-7.425782-13.515625 0-57.839844 46.890626-104.746094 104.761719-104.746094 28.925781 0 55.125 11.734376 74.089844 30.695313 18.964844 18.9375 30.675781 45.132813 30.675781 74.050781zm0 0" fill="#c5fff7"/><path d="m281.484375 272.890625c-18.964844-18.960937-45.160156-30.695313-74.085937-30.695313-10.722657 0-21.0625 1.613282-30.804688 4.605469 16.550781 5.082031 31.359375 14.152344 43.296875 26.089844 18.964844 18.9375 30.679687 45.132813 30.679687 74.050781 0 5.480469-2.792968 10.59375-7.425781 13.515625-19.910156 12.5625-42.421875 21.371094-66.542969 25.460938 10.011719 1.695312 20.300782 2.585937 30.796876 2.585937 35.78125 0 69.164062-10.269531 97.339843-28.046875 4.632813-2.921875 7.425781-8.035156 7.425781-13.515625-.003906-28.917968-11.714843-55.113281-30.679687-74.050781zm0 0" fill="#97f6ed"/><path d="m263.679688 185.921875c0-31.078125-25.199219-56.273437-56.28125-56.273437-31.085938 0-56.28125 25.195312-56.28125 56.273437s25.195312 56.273437 56.28125 56.273437c31.082031 0 56.28125-25.195312 56.28125-56.273437zm0 0" fill="#218fb9"/><path d="m226.988281 133.160156c7.726563 9.632813 12.355469 21.851563 12.355469 35.160156 0 31.078126-25.199219 56.273438-56.28125 56.273438-6.890625 0-13.488281-1.242188-19.589844-3.507812 10.3125 12.863281 26.152344 21.109374 43.925782 21.109374 31.085937 0 56.28125-25.191406 56.28125-56.273437 0-24.1875-15.265626-44.808594-36.691407-52.761719zm0 0" fill="#217fb5"/></svg>